<svg xmlns="http://www.w3.org/2000/svg" width="240" height="240" fill="none" stroke-linecap="round" stroke-linejoin="round" xmlns:v="https://vecta.io/nano"><path d="M56.1 6.6c-1.3-.1-2.8.2-4.4 1.2-10.6 6.1-13.2 13.9-13.2 13.9l-10 3.1c-6 1.8-15.9 3.6-12.1 12.6s14.3 13.5 14.3 13.5c1.8 3.6 11 2.7 18.5 1.3-7 12.1-11 26.1-11 41.1 0 36.1 23.3 66.7 55.7 77.4-7.4-.4-14.3-1-15.8-1.1-2.8-.2-14.2-3.7-16.1 3.1-2 6.8.2 19.1-.8 22.5 0 0-7.4.5-14 7.6-6.7 7-6.6 9.8-6.6 9.8s10.2 9.3 18.7 8.6c0 0 .3 10.5 9.3 17.6 0 0 8.2-6.2 8.6-12.6.3-6.5-.2-15.6 1.3-18.1l47.8-1.5 61.6.6c15.5.3 40.2 1.4 44.1-.5 3.8-1.9 3.3-29.7 2.8-31-.6-1.2-1.3-10.1-5.7-14.1s-11-4.9-12.9-7.7l.7-15.5s-1.1-2.4-5-3.4c-3.8-1.1-9.4-.8-12.8-3.2 0 0-1.3 10.5 3.7 17 0 0-6.5 4.8-9.9 12.7 0 0 14.7 1 15.4 1.6s4.6 6.3 4.6 6.8c.1.6-2.6.3-2.6.3l-59.4-1.5c29.7-12.2 50.5-41.3 50.5-75.4 0-45.3-36.4-81.7-81.6-81.7-19.8 0-38 7-52.1 18.7-.6-5.1-2.4-10.1-2.4-10.1S63.1 7 56.1 6.6z" fill="#efebe0"/><path d="M16.6 38s-3.6-1.3-9.5 2-7.2 7.1-4.9 9.1c2.4 2.1 5.7-2.3 5.7-2.3s1.6 1.2 2.5.7c.8-.5 2-2.2 2-2.2s1.9 1.5 3.2.4 3-4.6 3-4.6zm57-36.5c-1.6.2-3.5 1-5.6 2.5-4.8 3.5-5.5 6.4-5.6 7.1.1.1.1.2.2.3.7 1.1 1.2 2.2 1.6 3.4l.1-.1c1.5-1.9 3.9-1.7 5.5-1.9 1.6-.1 1-2.7 1-2.7 3.1 1.4 4.4-1.9 4.4-1.9 2.2 1.1 5.3-1.2 3.8-4-.8-1.8-2.8-3-5.4-2.7z" fill="#ffa99c"/><path d="M175.7 86.9l2.1 10.9s2.4 1.2 2.5 3.1c.2 1.9 1.4 12.1.6 16.1-.7 4-22.9 20.6-22.9 20.6l-24.5 13.1-15-4.5-5.2-19.4 17.4-18.3L173 85zM67.2 124.4s-5.5 4.5-3.9 10.9 6.7 8.2 9.3 8.1 6.4-2.3 7.8-3.9 1.3-4.6 1.2-6.3c-.1-1.6-3.1-11.3-14.4-8.8zm7 28.7s-4.2 1.3-3.4 7.4c.8 6.2 7.8 4.5 9.7 3.4s3.4-6 2.6-8.4c-.8-2.5-5.8-4.2-9-2.4zm35.6-117.2s-3.9 6.7-.1 11.1c3.8 4.3 13.1 3.3 14.5.9 1.3-2.4 2.1-6.5 2.1-6.5s4.1-.6 4.3-6.2c.3-5.6-4.1-6.6-7.3-6.4-3.3.2-4.6 3.3-4.6 3.3s-4.1-1.9-8.9 3.8zM176 25c-.4 0-1.1 2.3-1.4 4.1-.5.1-.9.3-1.3.5 0 0-1 .3-1.8 1.4-1.3-.1-2.8-.5-3.5-.7-1.5-.6-3.3-1.4-3.3-1.4s-.8 1.8.8 2.6c1.1.6 3.7 1.3 5.1 1.8 0 .3-.1.7-.1 1.1-1.6.5-4.6 1.1-5.6 1.9-1.3 1.1.4 1.8 1.6 1.5.8-.2 2.9-.7 4.5-.9.5 1.1 1.4 1.7 2.5 2 .5 1.7.9 3.9.9 4.3.1.7-.1 1.8 2-2.5s3.1-1.7 5.2-1.8c1.6-.1-.3-2.4-1.3-3.9.3-.9.4-1.8.4-2.6.8-.8 2-1.6 3.4-2.4 2.5-1.4 1.6-2-1.6-1.3-1.7.4-2.5.8-3.2 1.1-.8-.5-1.8-.9-2.9-1-.2-1.5 0-3.5-.3-3.9 0-.1-.1-.1-.1-.1z" fill="#fcf1f4"/><path d="M107.7 42.8s-5.9-4.5-14-1.1-8.4 6.4-8.4 6.4-7.6-.5-7.3 6.2c0 0-6.9-1-6.3 6.4 0 0-6.8.4-6 6.6 0 0-6.7 1.1-6.1 4.9 0 0-3.8.9-3.5 4.9 0 0-6.8.7-5.4 8.7 0 0-3.4 2.6-1.5 5.8 0 0-3.5 2.6 0 7 0 0-3.6 6.5 4.3 10.8 0 0 .1 7 7.2 9 0 0 .4 4.7 5.4 3 0 0 0 7.2 6.6 6 0 0 1.7 7.9 8.1 6.5l16.2 7.5s6.2 7.9 10.7 3.6c0 0 1.2 5.9 5.7 4.3 0 0 2.6 4.3 6.6 2.2 0 0 4.9 3.2 11.1-.7 0 0 2.4 3.2 9.6-1.5 0 0 4.7 2.5 6.8-2.3 0 0 2.1 1.6 6.3-2.8 0 0 3.4 2.6 5.4-4.2 0 0 3.5 2.6 6.2-2.2 0 0 4.8.7 3.3-4.2 0 0 3.8.6 6.4-1.2s3.3-5.4 3.3-5.4 4.7.2 4.9-4.6c0 0 4.9-2.6 2.4-8.4 0 0 1.7-4-1.8-5.5 0 0-.1-3.8-3.7-3.7 0 0 .9 9.1.3 12.7s-20.8 17.9-26.7 20.9l-21.2 11.3-1-.7s-1.3.2-2.3-.8-1.5-4.5-5.5-3.5c0 0 .2-3.9-2.1-4.6 0 0-.7-4.2-2.4-5.3l1.2-7.2s3.7-.8 5-6c0 0 3.2-1.5 4.3-4.3 0 0 5.7 0 6.7-5.9 0 0 9.5 4.2 12.1-6.1 0 0 6.8.6 7.9-4.3 0 0 5.5.2 7.2-5.8 0 0 7.2 1.2 9.3-4 0 0 9.4-8.4-2.5-14.2 0 0-.9-5.1-5.3-5.1 0 0 .1-5-7.9-3.4 0 0 0-3.7-8.5-5.1l-15-9.1s-1.8-6.5-9.8-4.9l-1.3-.7s-.6 1.1-6.4 1.2c-5.7.1-8.5-5-8.7-7.2z" fill="#cad1e0"/><path d="M107.5 73.8s-14.7 13.7-24.3 27.5-6.3 21.6-5.5 25.6c.9 4 4.3 8.7 7.2 10.2s10.8 5.1 11.6 4.7-3.6-4.7-5-12.1c-1.5-7.4-.3-13.1 4.4-21.7s17.6-19.9 17.6-19.9l35.7-24.7 3.4.8s.8-2.6-.9-4.7c-1.6-2.1-9.9-6.1-11.9-6.4s-7.4 1.9-11.1 5.1c-3.8 3.2-21.2 15.5-21.2 15.5zm60.2-22.6c-.9 0-1.7.3-2.7.8l-16.5 8.6c2.2 4.7 11.8 8.1 11.8 8.1s13.1-5.7 15-7.7c1.9-2.1 1.5-3.9-2.2-7-2.3-1.9-3.9-2.7-5.4-2.7zm-3.1 5.6c1.3 0 2.9 1.3 2.2 2.8-.8 2-3.4 2.6-4.4.7-.9-1.9 1.1-3.2 1.1-3.2a1.69 1.69 0 0 1 1-.3z" fill="#ceb2ff"/><path d="M86.4 79.4S80 82.5 74.7 82s-4.3-5.3-3.4-6.9 5.8-2.6 5.8-2.6-2.2-5.5 2.3-7.4c4.5-1.8 6.6 6.4 6.8 8.8s.2 5.5.2 5.5zm8.9-13.5s27 6.9 15.4 39.5c0 0 22.7-3.7 18.7-26.1-4.1-22.4-23.7-22.1-34.1-13.3zm49.1 11.5s3.9 5.8-.5 13c0 0 7.7-3.7 12.4-.9 0 0-3.4-7.1.7-11.3-4.7 1.6-7.9 1.2-12.7-.8z" fill="#ffe3a1"/><g stroke="#777570" stroke-width="1.4"><path d="M114.3 45.5s5.7-3.1 7 1.5m-11.2-3.5s4.2 0 4.5 3.5" opacity=".5"/><path d="M170.4 157.2s-8.3 7.1-18.9 11.3m-68.8-2.3s5.6 3 9.8 4.1m108.8-83.5s-2.5-27.2-16.6-43.5m-9.5 110.1s26.6-20.4 26.3-63.2m-29.1 65.7l1.4-1.2m-108.9-.9s.9 1 3 2.5M60 149s1.5 1.8 3.1 3.2M48.6 52.4s-29 45.2 9.5 94.8m45.3-134s-21.2 3.6-35.3 17.3m45.6-18.7s-3.2.2-5.5.5m55.9 12.3s-18.6-14.1-47.7-13.1M77 227l.5-14.6c.2-2.3.8-4.4.8-4.4m134.6-38.5s-3.1-7-6.5-6.9-13.6-1.1-13.6-1.1c3.5-8.3 10-12.7 10-12.7-5.2-6.7-4-17.2-4-17.2 6.4 3.8 10.6 1.7 15.2 4 4.6 2.4 1.8 6 1.8 6s-7.1 11.2 5.1 15.3 12.3 12.7 13.1 15.7c.9 2.9 2.3 32.6-3.3 34.6s-34.4.4-42.2 0-56.9-1.7-69.6-.4c-12.7 1.4-47.2 1.1-47.2 1.1s-6.7-1.7-8.9 2.2c-2.2 4 1.8 7.9 11.1 12.1S68.4 239 68.4 239s-10.7-10.3-9.1-17.9c0 0-7.1 1.9-18.6-8.6 0 0 3.8-13.7 20.5-17.4m166.7-34.6s7 11-10.9 10.2c-13.6-.7-79.1-3.5-97-.7-17.9 2.7-52.1-1.7-55.1-.7-3.1 1-4.1 6.7-3.3 12 0 0-.1 15.4-.9 22.4-.7 7 .8 10.5 3.7 12.9m152.4-77.3l-.4 15.1m-2.6-5.6l-.7 11.9c-.4 6.1.5 4-.4 9.8M55.4 6.4c-2 .2-4.2 1.5-7.1 3.5-6.6 4.3-9.6 11.7-9.7 11.8-1.3.4-12 3.3-18.6 5.7-7 2.5-5.6 11.4 1.7 17.4 7.2 6 19.5 1.7 37.1 5l.2.2v-.2c.1 0 .2 0 .3.1l-.2-.3c.2-1 .9-4 2.9-11.1 2.7-9.4 5.1-19.8.5-27-2.6-4-4.7-5.4-7.2-5.1zM21.7 44.9h0s4.7 6 11.4 6.1 20.4-2.1 25.9-.9c0 0 5.5-11.7 7.2-16.3 1.7-4.5.5-12-1.2-14.4m-35.2 31s3.1 3.4 9.3 3c6.2-.3 16.7-3.7 20-3.5 0 0 6.6-7.5 8.5-12.9 1.6-4.7-.7-11.4-.7-11.4m-13.6 9.7s1.1-2.3 1.8-2.2 1.5-.9 1.7-1.4c.1-.5 1.2-.7 1.2-.7m-2.1-8.6s.9-1.4 2.4-1.5.8-1.3 1.1-2.1c.3-.7 1.2-.8 1.2-.8M49.8 29.2s.8-2.2 1.5-2.3c.8-.1 1.4-.3 1.5-1.3m-7.6-1.2s-.2-3.4 2.6-3.7c2.8-.4 1.2-1.8 2.3-2.3s3.5-.8 2.9-1.9c-.5-1.1-1.1-3.4.1-3.1s2.7 1 3.5.3m-18.8 29s-.9-2.5 3-2.2c3.8.4 2.8-1.3 2.8-1.3m-17.1 1.4s1.8-1.5 3.9-1.6 1.4-1.4 2.5-1.9 4.3-.5 4.6-.9c.3-.3 1.8-2.5 1.8-2.5m-4.1-3.4s.8-.8 1.5-.8m-14.8 5.8s.5-2.8 2.5-2.3 2.1 2.1 4-.4 3.6-.9 3.6-.9m24.8 15s1.1 1 2 3M44 30.1s4.4 6.6 6.5 9.1 4.2 5.3 5.1 6.2M38.7 21.9s2 3.9 4.3 6.9M70.8 9.9s1.3 2.9-1.9 3-3.9.6-4.5 2.2M74.5 8s.1 3.4-2.7 2.4c-2.8-.9-2.1-3.7-2.1-3.7M12.2 45.2s3.3 3.1 6.1-3.5M8.2 46.1s.1 2.8 2.6.9c2.5-1.8 1-5.6 1-5.6m4.7-3.3S11.6 35.5 4.3 42c-7.2 6.5-.1 9.6 2.6 6s1.2-5.8 1.2-5.8m54.5-31s.5-4.8 7.1-8.6c6.6-3.7 10.6.6 9.4 4s-4.9 2.6-6.4-1.3m37 114.3s.9 2.4 4.2 4.3m-15.7-11.8s1.6 5.5 6.4 6.8c4.8 1.4 8.7-.1 8.7-.1M72.7 96.1s-.9 4.9 5.8 7.1M66.6 92.8s-1.4 3.1 2 7.6M58.5 86.8s-3.3 2.8.7 7.2m89.7 11.4s8.4.9 7.9-6.3m-21.6 11.4s2.7 2.5 8 1.5 5.8-8.1 5.8-8.1m-24.9 40.8s3.4-1.1 4.5 2 3 2.1 3 2.1m-11.8-8.9s3-.6 3.9 2-.6 4.2-.6 4.2m-5.7-12.1s3.6-.3 4.5 5.6m-1.3-13.9s.4 4.1-1.1 8.9m6.3-12.9s-1.1 4.3-4.7 6m7.6-8.4s-1.6 2.6-4.7 2.2m12.4-9.1s-.6 3.4-4.1 4.3c-3.6.9-4.9.2-4.9.2m36.5-21.6s-.9 5.1-6.8 5.8M173 87.3s1.4 5.2-2.9 7.2c-4.4 2-8 .1-8 .1m10.2-17.2s4.3 1.4 4.6 6.5-3.6 7.6-3.6 7.6m-8-19.9s4.7.4 5 4.9m-12.6-8.1s2.9-.4 5.3.2 2.1 4.2 2.1 4.2m-13.5-8.6s3.5.6 4.9 2.6 1.3 2.6 1.3 2.6m-33.3-20.1s2.6-1 5.5.4c2.9 1.3 3.5 4.2 3.5 4.2m50 55.2s1.7-2.5-1.6-4.1m3.9 8.7s1.4-2.8-.4-4.3m-3.8 13.3s3.6 0 4.7-4.4-1.8-4.8-1.8-4.8m-6.1 13.6s4.8-.2 5.1-4.5m-13 10.9s3.9.9 6.3-2.8c2.5-3.7 1.3-5.1 1.3-5.1m-12.5 12.6s4.5.2 3-3m-8.8 5.1s2.3 1.5 4.1-.4c1.9-1.9 1.7-3 1.7-3m-11.8 7.6s2.9 1.7 4.5-2.1m-12 4s2 2.4 5.3-.2 3-3.1 3-3.1m-13.9 6.6s5.1 2 7-2.5m-16.4 4s3.1 3.3 10.4-2.5m-22.7 1.1s.8 4 7 3 6.3-3.1 6.3-3.1m-18.9-.5s2.6 4 6.6 2.5m-11.2-4.9s.1 2.1 2.5 2.6 3.6-1.7 3.6-1.7m-17.3-6s2.2 3.5 5.5 4.4c3.3.8 4.2-.9 4.2-.9m-34.5-17.9s1.6 7.3 7 6.6M66.6 123s0 2.7 2.7 4c2.7 1.2 5.1-.5 5.1-.5m-13.8-8.1s0 2.1 2.1 2.9 3.1-.1 3.1-.1m-12.1-13s-.9 4.3 2.8 7.8c3.6 3.5 6.3 1.6 6.3 1.6M49.1 98.8s-3.2 6 4.1 10.6m-2.3-18.6s-2.6.2-3.2 3.5c-.5 3.4 2.7 4.9 2.7 4.9m.1-13.1s-2.9 2.3-1.7 4.7M56 77s-5.8.8-5.5 7.3m10-12.3s-2.8-.2-3.9 2.5-.1 3.7-.1 3.7M67.2 67s-3.5.2-6.1 2.1m12-8.4s-3.7-.5-6 1.8-1.5 4.4-1.5 4.4m10.7-12.4s-3.3-.2-4.1 2.3-.5 3.5-.5 3.5M85.4 48s-5 .2-6.5 2.4-.8 3.8-.8 3.8m27.7-12.4s-5.2-3.1-13-.1c-7.7 3-7.5 7.8-7.5 7.8m94.8 51.9s1.8 12.2.2 16.8-32.1 25.4-46.4 30.9M176 88.7s2.9 8.9 1.1 13.4-38.7 28.8-38.7 28.8 52.1-24.5 39.6-32.8m2.1-60.4l1.6 1.1m-13.5-2.1l-3 1M175.3 27l.1-3.1m5.1 8l5.8-3.2M170.5 32l-5.6-2.7m9.9 10.3l-.5 5m4.2-10.2s-2.4.7-1.9 2.2m-3-4.4s1.5 1.1 3.7-.7m-5 3.2s1.1.9.6 2M74.8 164.9s5 1.6 7.5-3.1.5-7.4-1.9-8.9-3.6-.7-3.6-.7m-1.6.3s-4.6 1.3-4.5 6.5 2.6 5.6 2.6 5.6m47.6-124.3s-1.3-.8-1.7-2.4m5.6-9.1s5.6-.5 5.7 6.2-5.6 7.1-7.6 6.2m-5-5.1s-.8-4.7 4.1-6.9m-10.1 4.7s3.4-2.8 6.7-1.7m3.7 16.8s2.8-1 3.8-6.1m-15.8-7.3s-4.4 5.7-1.1 10.9c3.3 5.3 11.2 3.4 11.2 3.4m-40.7 90.2s2.1-2 1.7-4.2M67 141.3s3.7 4.4 10.5.4M66.4 125s-6.1 6.4-1.3 14.3m42.4-65.6s-16.4 14.4-27.1 31.6 1.6 29.5 3.2 30.9c1.7 1.4 10.4 5.4 12.4 5.9 2 .6-1.5-3.2-3.7-9.1-2.1-5.9-2.7-17.2 5.2-27.6 7.9-10.3 15.7-17.4 15.7-17.4m39.4-26.4s1.2-2.1-6-5.6-7.4-6.6-24.9 7.7m31.3-.1s.4-2.6-.9-2c-1.3.7-5.5 2-22.3 14.8m33.9-19.5s-2.1 1.2-1.1 3.2c.9 1.9 3.5 1.4 4.4-.7.8-2-2-3.5-3.2-2.5zm-12.2 1.8s7.1-3.4 11.3-5.8c4.2-2.5 7-3 11.1 1.1 4 4.1 3.6 5.1-2.1 8.8-5.6 3.6-9.7 5.2-9.7 5.2M77 72.5s-6.8-.7-6.6 6.1c.1 6.7 15.5 1.7 16 .6m0-.2s.9-7.1-1.4-10.9-5.3-4-7.3-2.1c-2.1 1.9-.4 8.1 1.3 9m67.6 3s3.5 3.6 11-.1M156.2 88s-3.5-4.9 1.7-10.2m-13.5-.7s5.3 5.5-.8 13.7c0 0 8.2-5.1 13.2-.4M94.7 66.1s13.1 1.8 17.3 15.6c4.1 13.8-.7 22.3-1.4 23.2s1.5 1.8 9.4-3 12-14.1 8.2-27.3-15.8-15-21.5-14.1-11 4.5-11 4.5"/></g></svg>