<svg xmlns="http://www.w3.org/2000/svg" width="55" height="55" xmlns:v="https://vecta.io/nano"><circle cx="27.2" cy="27.5" r="26.5" fill="#efebe0"/><g stroke="#777570" stroke-linejoin="round" stroke-width="1.4"><path d="M13.171 50.724s-6.8-4.9-9-9.5m33.5 10.8s-8.8 4.6-21.5.1m33.2-39.2s14.5 20.1-9.3 38.1m3.9-43.9s2.4 2 3.6 3.6m-20.4-9.8s8.2-.7 15.1 4.8M6.709 10.312C9.996 6.399 15.621 2.174 24.971.924" fill="none" stroke-linecap="round"/><path d="M35.3 24.4s-3.3 1-2.8 4.1 6.1 2.3 6.5-1-3.7-3.2-3.7-3.2zm-8.9.5s-3 1.4-2.7 3.8 4.6 2.3 5.4-.1-1.4-3.6-2.7-3.7zm-8.4.4c-.2 0-.3 0-.4.1 0 0-2.4 1.4-2.1 3.2.2 1.8 4 1.9 4.4-.5.3-2-1-2.8-1.9-2.8z" fill="#f5e59b"/></g></svg>