<svg xmlns="http://www.w3.org/2000/svg" width="55" height="55"><circle cx="27.2" cy="27.5" r="26.5" fill="#efebe0"/><g stroke="#777570" stroke-width="1.4" stroke-linejoin="round"><path d="M24.271 26.124l.6-6.1c.4-1.9 3.9-2.2 4.1 1.2l.1 5.2s6.6-.7 7.5 1.1-2.5 3.3-7.1 3.4c0 0 .9 6.8-1.2 7.7-2.2.8-3.5-3.7-4-7.7 0 0-5.3.6-7.9-1.7s4.7-3.5 7.9-3z" fill="#f5e59b"/><path d="M13.171 50.724s-6.8-4.9-9-9.5m33.5 10.8s-8.8 4.6-21.5.1m33.2-39.2s14.5 20.1-9.3 38.1m3.9-43.9s2.4 2 3.6 3.6m-20.4-9.8s8.2-.7 15.1 4.8m-39.8 12.1s3.8-14.4 22.5-16.9" fill="none" stroke-linecap="round"/></g></svg>