<svg xmlns="http://www.w3.org/2000/svg" width="98.15" height="52.833"><path d="M29.147 3.813s-5-5-9-3-6 5-6 5-11 4-8 14c0 0-5 6-5 14s10 9 10 9 2 7 12 9 19-2 21-6c0 0 22 10 33-4 0 0 7 3 13-1s8-12 7-18-7-12-11-14-10-2-13 0c0 0-11-11-23-3 0 0-9-11-21-2z" fill="#efebe0"/><path d="M15.147 39.813s-8.3-2-9-7m9-22s-3-6 2-9 10 1 10 1m25 7s-3-9-13-9-11 6-11 6m45 2s-11-10-20-5m21 36s6 3 13 2 17-17 4-29-20-1-20-1m-32 31s9 6 21 6 18-7 18-7m-67-3s-1 10 13 13c14 2 20-6 20-6m-35-27s-5-1-8 11 10 13 10 13m3-37s-11 4-8 14" fill="none" stroke="#777570" stroke-width="1.4" stroke-linecap="round" stroke-linejoin="round"/></svg>