<svg xmlns="http://www.w3.org/2000/svg" width="394" height="308" fill="none" stroke-linecap="round" stroke-linejoin="round">
<path d="M4.1 281.3s-6.8-18.9.9-36.9c0 0-3.5-10.8-4.2-22.3s4.8-22.4 9.9-29c0 0-12.1-17.9-1.1-35.6 0 0-17-20.6-.2-55.2 0 0-8.6-11.4 2.1-16.2 0 0-11.8-22.6 3.5-43.3 0 0-4.2-11.9.9-25.9S26 8.2 26 8.2s8-13 22.2-2.7c0 0 22.1-11.3 33.5 1.8 0 0 15.4-10.9 30.2.7 0 0 22.8-14.2 46.3 2.2 0 0 12.2-7.9 26.2-6.4s15 7.9 15 7.9 2.2-5.6 11.6-5.2c9.3.5 18.6 3.5 21.3 7.9 0 0 10.2-20.8 38.2-4.5 0 0 14.4-13.1 33.3 3.2 0 0 7.2-7.5 21.2-8.7 14-1.1 22.3 6.3 22.3 6.3s17.4-7.1 28.6 14.7c0 0 15.5 10.8 8.5 35.6 0 0 7.9 6.5.6 14.7 0 0-4.6 4.1-6.1 4.6 0 0 14.1 9.3 5.7 26.5 0 0 9.8 13.6 1.7 29.9 0 0 12.1 5.2 3.4 14.6 0 0 2.8 5.8-6.7 16.3 0 0 8.3 14.6 7 25.5s-7.2 23.1-7.2 23.1 12.6 18.1 3.6 30.1c0 0 6.2 10.1-2.6 23.3 0 0 8.8 14.8-2 18.4-10.8 3.7-15.3 1.3-15.3 1.3s-8 8.6-20.6 5.1c0 0-10.5 7.7-22.6-1.5 0 0-13 13.4-40.7-.3 0 0-2.3 6.1-10.2 6.4s-9.3-3.8-9.3-3.8-2.1 3.2-7.8 4.1-11.6-3.6-11.6-3.6-13 16-31.8 3.4c0 0-9.5 5.6-19.7-3.3 0 0-16.4 13.7-30.3 0 0 0-5.1 7.2-15.6 6.1s-9.4-1.7-9.4-1.7-15.4 5.4-34.2-3c0 0-6.6 10.6-27.6 3.1 0 0-16.6 14-35.4 0-1.3.6-11.4 3.4-23-1 0 0-17.5.3-12.9-18z" fill="#efebe0"/>
<g stroke="#777570">
	<path d="M218.4 78.8s-2.7.3-15.2 11.9-13.9 12.4-11.5 17.1 10 2.6 13.9-2.3c6.9-8.5 18.1-26.9 12.8-26.8zm1.5 1.1s3.4 11.6 5 22.7.9 18.2 2.9 19.9c2.1 1.7 4.5.2 9.6 3.8M199.8 111s1.5 7.7 2.8 9.6c1.2 1.9-1.9 5.7-2.9 8.9 0 0-5.5-.5-7.1.7M176 99.1l2.3 13.9c.4 2.6-6.7 7.7-9 11.2 0 0-4.7-1-7.9.7m9.9-44.3s-1.9-9.2-11-10.7c-9.1-1.4-14.4 8.2-14.3 14.9s5.2 12.7 10.9 13.3 10.7-2 12.4-6.2 2.5-7.4 2-11.3zm-12.2-4s-4.7 1.6-3.3 6.7c1.4 5 6.2 4.2 7.4 1.5 1.2-2.6 1.2-8.5-4.1-8.2zm-1.5-6.9s3-10.8-4-20.2-16.8-9.2-20.1-11.9m17.5 35s-2.6-8.5-8.4-14.2-10.5-5.9-17-6c-6.6-.1-7.3-1.9-7.3-1.9m93.5 60.3s.9 7.7.9 10.8 5.7 1.5 10.1 5.2m-32.7-16.7s-4.2 4.1-5.2 5.9-.8 8.6-.8 10.6-2.6-.5-7.4 1.3m-7.2-26.2s-7 3.7-8.2 5.4-4.8 10.8-5.7 11.7c-.9 1-4.6-.4-7.9.6m73.3-36s16.6-7.8 13.7-21.3c-4.3-19.6-63.2 18.5-63.2 18.5s5.8 18.3 28.2 13.2m46.9 130.8l-.1 1m17.7 7.3s4.6 3.9 1.5 10.2c-3.1 6.4-8.6 5.3-8.9.2-.4-5.1 2.2-10.6 7.1-11.3 4.8-.7 8.2-2 8.2-2m-25.8 3.1s-1.7 9.5-1.2 13 4.1 1 4.1 1m-14.3-9.9s-2.5-4.2-6.4-3.2-10 10-3.8 13.8 11.7-12 12.9-24.6c0 0-3.1 22.1-2.9 23.9s2.3 1.5 2.3 1.5m-35.1-16.8s-2.4 5.7-2.8 11.6c-.4 6 4.5 3.7 7.6-.3 3.2-4 5.8-8.1 5.8-8.1s-4.3 12.4 0 13.4m-28.4-15.8l9.2-1.9m-7.2-8.9s-3 13.7-4.1 21.1 6 4 6 4m-37.3 1.8s12.6-8.9 20.3-16.5c0 0 4.5 10.7.6 15s-5.1-1.4-5.1-1.4m48.9-154.1s8.9 2.3 17.5 6c8.5 3.7-2.4 9-12.2 11.2-9.9 2.1-17.2 3.5-34.9-.2s-19.1-12.6-19.1-12.6" stroke-width="6.9"/>
	<path d="M17 184s-9 8.2-2.5 19.7M369.8 49.6s9.2 5.5 9.5 14M34 52.2s-6.3-1.3-7.3 8.2M21 32s-6.1 9 7.8 21.9m-6.4 234.3s4.7 1 7.3-.1M8.5 269.7s-4.4 11 8.9 17.3m354-31.5s7 9-2 17M341.1 33.4s-8.4-12.2-18.9-8.4m11 .6s13.7-10.8 27.3-2.3m-87.9 275.9s2.2.1 3.1-.4m-13.4-10.4s-1.4 7.5 4.5 9.7m113.7-31.8s4.7 2.8 6 10m.7-177s-.6 3.3-1.2 4.6M201.4 9.3s1.6-1.3 4.5-2.2m-13.2-1.4s7.5 2.5 6.7 8.1M151 6.2s3.1 1.4 4.9 2.6m-17.5-6.1s2.9.2 4.9.8m6.8 298.5s2 .1 4.3-.6m-21-4s.4 2.6 9 4m13.2-288.8s5.3-7.2 22.1-8.7M112 7.8s7.1-4.4 12.1-4.3m-48 7.1s14.1-9.9 25-7.5 14.3 9.6 14.3 9.6M48.1 5.5s19-10.1 30.5-.5m-55.4 9.7s1.3-9.4 8.2-11.8C38.3.4 45.1 1.7 49.6 7.8M231.3 14s-2.9-6.8-22.1-7.6m61.3 3.5s-11.2-6.4-21.4-6.3-21 15.5-21 15.5m81.7.3S302.2 8.7 289 5.6s-22.5 7.7-22.5 7.7m112.4 46.5s4.4-1.3 7.6 4.9c3.2 6.1-2 11.2-2 11.2M351.4 16c-.8-1-4.7-8.6-19.3-11.1s-25.7 6-25.7 6m68.3 19.3s3.7-5.6-6.3-14.9-21.7-4.8-21.7-4.8m37.7 50.3s3.8-11.6-.1-22.8-8.9-12.9-8.9-12.9m11.2 69s-.4-9.2-8.5-13.5m7.9 55.8s9.1-15.9-3-31m1.8 48.5s8.7-4 7.7-10.1c-.9-6.1-11-8.8-11-8.8m1.5 32.6s8.8-10.6 6.4-16.1m-6.7 64.8s11.1-19.9 5.5-35.3c-5.6-15.3-7.4-16.2-7.4-16.2m1.6 84.6s7.7-3 6.9-15.7c-.9-12.7-9.2-20.5-9.2-20.5m6.1 52.1s4.7-8.2.5-18.6m-19.2 42.6s8.9 2.3 15-1m-40.2 3.4s6.7 3.8 14.3 3c7.7-.8 12.8-8.4 12.8-8.4m-45.9 6.7s10.9 9 22.8 1.4m-63.4-1.9s8.2 5.6 21.2 6.4 22.1-8.4 22.1-8.4m-81.9 5.3s8.3 5.9 14.9 2.4m-50.6-2.8s6 8.2 18.2 8.6c12.2.3 20.2-12.1 20.2-12.1m-54.5 3.5s9.7 8.6 19 3m-50-3s3.1 4.1 12 6 23-9 23-9m-93 5s10.4 6.3 27 4m-56-1s15.3 6.5 23 1 9-8 9-8m-69 3s1.3 3.5 11 8 24 0 30-8m-61 3s11.7 5.6 23 1M8 277.1s-6.7 2.9-4.3 13.2m1-46.6s-7.3 17.7-.9 37.5M6 200.1s-6.9 9.7-4.9 25.7c2 15.9 5.5 23.1 5.5 23.1m6.2-95.2s-9.3 9-7.9 22.5c1.3 13.6 6.8 18 6.8 18m-2.4-91.8s-16.8 29.4 0 55.4m2.1-71.6s-7.6 3.1-4.8 10.6c2.8 7.4 7.2 9.7 7.2 9.7m5.6-67S8.2 45.6 7.2 63.2s6.9 27.7 6.9 27.7M22.5 8s-13.2 8.7-7.7 34.7" stroke-width="1.4"/>
	<path d="M56.9 241.8c10.4 8.3 23.6 12 36.8 10.5 13.2-1.6 25.2-8.3 33.4-18.7M54 245.4c11.3 9 25.8 13.2 40.2 11.5s27.6-9 36.6-20.3m-79.7 12.5c12.3 9.8 28 14.3 43.7 12.5 15.6-1.8 29.9-9.7 39.7-22.1m-86.4 13.3c13.3 10.6 30.3 15.4 47.2 13.5s32.3-10.5 42.9-23.8m195.9-80.8c-10.1-8.6-23.2-12.8-36.5-11.7-13.2 1.1-25.4 7.5-34 17.6m73.4-9.4c-11-9.4-25.4-14-39.8-12.8s-27.8 8.1-37.2 19.1m44.7 12.8l-.1.1m-1.3 17.5s-2.1 19.5-1.9 25.4c.3 5.8 7.3 1.7 7.3 1.7m-137.5-72.8l-3.8 54.8c-.4 7.5 2.6 12.4 12.2 2.7m59.2-52.1l-.1.1m-1.3 17.5s-2.1 19.5-1.9 25.4c.3 5.8 7.3 1.7 7.3 1.7M155 176.5l-.1.1m-1.3 17.5s-2.1 19.5-1.9 25.4c.3 5.8 7.3 1.7 7.3 1.7m-68.4-52s2.2 11.9-1.6 28.6c0 0 1.7-21.5 10.8-24.5 9.1-2.9 9.8 3.4 9.8 3.4m80.8-26.5l-.1.1m-1.4 17.5s-2.1 19.5-1.9 25.4c.3 5.8 7.3 1.7 7.3 1.7m60.7-11.4s-3.2 15.3-.8 23.4c2.5 8.1 13 4.4 17.4-13.8 0 0-5.2 16.1 7 18.6 11 2.2 18.7-24.4 6.3-27.3m-160-41.4s.2 15.9-1.7 35.1-2.2 15.4-1.2 22.1 9.4 7.5 13.3 4.5 11.4-12.7 3.6-23.2-16.6 5.6-16.6 5.6m-44 9.1s-8.1 13.2-19.2 6.3c-11.2-6.9.1-26.6 9.6-26.4 9.6.2 12.2 7.9 9.3 27.2-2.8 19.3-2.6 24.4-9.6 26.2-7.4 1.8-12-4.2-12-4.2m53.8-63.5l-.1.1m113.6 19.9s-8.1 13.2-19.2 6.3c-11.2-6.9.1-26.6 9.6-26.4 9.6.2 12.2 7.9 9.3 27.2-2.8 19.3-2.5 24.4-9.6 26.1-7.4 1.9-12-4.2-12-4.2m-95-21.9s-2.1 19.5-1.9 25.4c.3 5.8 7.3 1.7 7.3 1.7m227.9-61.3c-12-10.2-27.6-15.2-43.2-13.9-15.7 1.3-30.2 8.8-40.4 20.8m86.7-10.5c-13-11-29.8-16.4-46.7-15s-32.6 9.5-43.6 22.4" stroke-width="8.5"/>
</g>
<g stroke-width="4.2">
	<path d="M221 83.4s16.6-7.8 13.7-21.3c-4.3-19.6-63.2 18.5-63.2 18.5s5.8 18.3 28.2 13.2" stroke="#cad1e0"/>
	<path d="M159.1 76.6s-4.7 1.6-3.3 6.7c1.4 5 6.2 4.2 7.4 1.5 1.2-2.6 1.2-8.5-4.1-8.2zm-1.5-6.9s3-10.8-4-20.2-16.8-9.2-20.1-11.9m17.5 35s-2.6-8.5-8.4-14.2-10.5-5.9-17-6c-6.6-.1-7.3-1.9-7.3-1.9m93.5 60.3s.9 7.7.9 10.8 5.7 1.5 10.1 5.2m-32.7-16.7s-4.2 4.1-5.2 5.9-.8 8.6-.8 10.6-2.6-.5-7.4 1.3m-7.2-26.2s-7 3.7-8.2 5.4-4.8 10.8-5.7 11.7c-.9 1-4.6-.4-7.9.6" stroke="#f5c9d3"/>
	<path d="M218.4 78.8s-2.7.3-15.2 11.9-13.9 12.4-11.5 17.1 10 2.6 13.9-2.3c6.9-8.5 18.1-26.9 12.8-26.8zm1.5 1.1s3.4 11.6 5 22.7.9 18.2 2.9 19.9c2.1 1.7 4.5.2 9.6 3.8M199.8 111s1.5 7.7 2.8 9.6c1.2 1.9-1.9 5.7-2.9 8.9 0 0-5.5-.5-7.1.7M176 99.1l2.3 13.9c.4 2.6-6.7 7.7-9 11.2 0 0-4.7-1-7.9.7m9.9-44.3s-1.9-9.2-11-10.7c-9.1-1.4-14.4 8.2-14.3 14.9s5.2 12.7 10.9 13.3 10.7-2 12.4-6.2 2.5-7.4 2-11.3zm75.3 144l-.1 1m17.7 7.3s4.6 3.9 1.5 10.2c-3.1 6.4-8.6 5.3-8.9.2-.4-5.1 2.2-10.6 7.1-11.3 4.8-.7 8.2-2 8.2-2m-25.8 3.1s-1.7 9.5-1.2 13 4.1 1 4.1 1m-14.3-9.9s-2.5-4.2-6.4-3.2-10 10-3.8 13.8 11.7-12 12.9-24.6c0 0-3.1 22.1-2.9 23.9s2.3 1.5 2.3 1.5m-35.1-16.8s-2.4 5.7-2.8 11.6c-.4 6 4.5 3.7 7.6-.3 3.2-4 5.8-8.1 5.8-8.1s-4.3 12.4 0 13.4m-28.4-15.8l9.2-1.9m-7.2-8.9s-3 13.7-4.1 21.1 6 4 6 4m-37.3 1.8s12.6-8.9 20.3-16.5c0 0 4.5 10.7.6 15s-5.1-1.4-5.1-1.4m48.9-154.1s8.9 2.3 17.5 6c8.5 3.7-2.4 9-12.2 11.2-9.9 2.1-17.2 3.5-34.9-.2s-19.1-12.6-19.1-12.6" stroke="#f5e59b"/>
</g>
<g stroke-width="5.6">
	<path d="M56.9 241.8c10.4 8.3 23.6 12 36.8 10.5 13.2-1.6 25.2-8.3 33.4-18.7M343.2 151c-13-11-29.8-16.4-46.7-15s-32.6 9.5-43.6 22.4m51.9 18.9l-.1.1m-1.3 17.5s-2.1 19.5-1.9 25.4c.3 5.8 7.3 1.7 7.3 1.7m-137.5-72.8l-3.8 54.8c-.4 7.5 2.6 12.4 12.2 2.7" stroke="#cad1e0"/>
	<path d="M54 245.4c11.3 9 25.8 13.2 40.2 11.5s27.6-9 36.6-20.3m209.3-81.9c-12-10.2-27.6-15.2-43.2-13.9-15.7 1.3-30.2 8.8-40.4 20.8m-17.6-6.8l-.1.1m-1.3 17.5s-2.1 19.5-1.9 25.4c.3 5.8 7.3 1.7 7.3 1.7m-87.8-22.8l-.1.1m-1.3 17.5s-2.1 19.5-1.9 25.4c.3 5.8 7.3 1.7 7.3 1.7m-68.4-52s2.2 11.9-1.6 28.6c0 0 1.7-21.5 10.8-24.5 9.1-2.9 9.8 3.4 9.8 3.4" stroke="#ffa99c"/>
	<path d="M51.1 249.1c12.3 9.8 28 14.3 43.7 12.5 15.6-1.8 29.9-9.7 39.7-22.1M337 158.2c-11-9.4-25.4-14-39.8-12.8s-27.8 8.1-37.2 19.1m-149.8-2.7l-.1.1m113.6 19.9s-8.1 13.2-19.2 6.3c-11.2-6.9.1-26.6 9.6-26.4 9.6.2 12.2 7.9 9.3 27.2-2.8 19.3-2.5 24.4-9.6 26.1-7.4 1.9-12-4.2-12-4.2m-95-21.9s-2.1 19.5-1.9 25.4c.3 5.8 7.3 1.7 7.3 1.7" stroke="#f5e59b"/>
	<path d="M48.1 252.9c13.3 10.6 30.3 15.4 47.2 13.5s32.3-10.5 42.9-23.8m195.9-80.8c-10.1-8.6-23.2-12.8-36.5-11.7-13.2 1.1-25.4 7.5-34 17.6m-73.2-17.4l-.1.1m-1.4 17.5s-2.1 19.5-1.9 25.4c.3 5.8 7.3 1.7 7.3 1.7m60.7-11.4s-3.2 15.3-.8 23.4c2.5 8.1 13 4.4 17.4-13.8 0 0-5.2 16.1 7 18.6 11 2.2 18.7-24.4 6.3-27.3m-160-41.4s.2 15.9-1.7 35.1-2.2 15.4-1.2 22.1 9.4 7.5 13.3 4.5 11.4-12.7 3.6-23.2-16.6 5.6-16.6 5.6m-44 9.1s-8.1 13.2-19.2 6.3c-11.2-6.9.1-26.6 9.6-26.4 9.6.2 12.2 7.9 9.3 27.2-2.8 19.3-2.6 24.4-9.6 26.2-7.4 1.8-12-4.2-12-4.2" stroke="#f5c9d3"/>
</g>
</svg>