<svg xmlns="http://www.w3.org/2000/svg" width="181" height="45" fill="none" stroke-linecap="round" stroke-linejoin="round" xmlns:v="https://vecta.io/nano"><path d="M121.659 18.6h0m-.6 7.9s-1 8.8-.9 11.5c.1 2.6 3.5.8 3.5.8m-66.1-32.9l-1.8 24.8c-.2 3.4 1.2 5.6 5.9 1.2m28.4-23.6h0m-.6 7.9s-1 8.8-.9 11.5c.1 2.6 3.5.8 3.5.8m-42.1-10.3h0m-.8 8s-1 8.8-.9 11.5c.1 2.6 3.5.8 3.5.8m-32.9-23.6s1.1 5.4-.8 13c0 0 .8-9.8 5.2-11.1s4.7 1.5 4.7 1.5m38.8-12v.1m-.7 7.9s-1 8.8-.9 11.5c.1 2.6 3.5.8 3.5.8m29.1-5.2s-1.5 6.9-.4 10.6c1.2 3.7 6.2 2 8.3-6.3 0 0-2.5 7.3 3.4 8.4 5.3 1 9-11.1 3-12.4M35.359 3s.1 7.2-.8 15.9-1.1 7-.6 10 4.5 3.4 6.4 2 5.5-5.8 1.7-10.5c-3.7-4.8-8 2.5-8 2.5m-21.1 4.3s-3.9 6-9.2 2.9c-5.4-3.1 0-12.1 4.6-12s5.9 3.6 4.5 12.3c-1.3 8.8-1.2 11.1-4.6 11.9-3.5.8-5.8-1.9-5.8-1.9m25.8-28.8h0m54.5 9s-3.9 6-9.2 2.9c-5.4-3.1 0-12.1 4.6-12s5.9 3.6 4.5 12.3c-1.3 8.8-1.2 11.1-4.6 11.8-3.5.9-5.8-1.9-5.8-1.9m-45.6-9.8s-1 8.8-.9 11.5c.1 2.6 3.5.8 3.5.8m140.2-16s-1.3.1-7.3 5.4-6.7 5.6-5.5 7.8c1.2 2.1 4.8 1.2 6.7-1 3.3-3.9 8.7-12.2 6.1-12.2zm.7.5s1.6 5.3 2.4 10.3.4 8.3 1.4 9c1 .8 2.2.1 4.6 1.7m-18-6.9s.7 3.5 1.3 4.4-.9 2.6-1.4 4c0 0-2.6-.2-3.4.3m-8-14.1l1.1 6.3c.2 1.2-3.2 3.5-4.3 5.1 0 0-2.3-.5-3.8.3m4.7-20.1s-.9-4.2-5.3-4.9c-4.4-.6-6.9 3.7-6.9 6.8 0 3 2.5 5.8 5.2 6 2.7.3 5.1-.9 5.9-2.8s1.2-3.4 1-5.1zm-5.9-1.8s-2.3.7-1.6 3 3 1.9 3.5.7c.6-1.2.6-3.9-2-3.7zm-.7-3.1s1.4-4.9-1.9-9.2-8-4.2-9.5-5.4m8.4 15.9s-1.2-3.9-4-6.4c-2.8-2.6-5-2.7-8.2-2.7s-3.5-.9-3.5-.9m44.9 27.3s.4 3.5.4 4.9 2.7.7 4.8 2.4m-15.7-7.6s-2 1.9-2.5 2.7-.4 3.9-.4 4.8-1.2-.2-3.5.6m-3.5-11.9s-3.4 1.7-3.9 2.4c-.6.8-2.3 4.9-2.7 5.3-.4.5-2.2-.2-3.8.3m35.2-16.3s8-3.5 6.6-9.7c-2.1-8.9-30.3 8.4-30.3 8.4s2.8 8.3 13.5 6m7.5-1s4.3 1 8.4 2.7-1.2 4.1-5.9 5.1-8.3 1.6-16.7-.1c-8.5-1.7-9.2-5.7-9.2-5.7" stroke="#777570" stroke-width="3"/></svg>