<svg xmlns="http://www.w3.org/2000/svg" width="100" height="100" xmlns:v="https://vecta.io/nano"><path d="M6.4 61.6a4.5 4.5 0 1 1-9 0 4.5 4.5 0 1 1 9 0zm-.1 32.9a4.5 4.5 0 1 1-9 0 4.5 4.5 0 1 1 9 0zM3 80.5a4.5 4.5 0 1 1-9 0 4.5 4.5 0 1 1 9 0zm-.3-36.6a4.5 4.5 0 1 1-9 0 4.5 4.5 0 1 1 9 0zM5 10.3a4.5 4.5 0 1 1-9 0 4.5 4.5 0 1 1 9 0zm35 27.1a4.5 4.5 0 1 1-9 0 4.5 4.5 0 1 1 9 0zm-17.5 6.9a4.5 4.5 0 1 1-9 0 4.5 4.5 0 1 1 9 0zm-1.4 56.4a4.5 4.5 0 1 1-9 0 4.5 4.5 0 1 1 9 0zm0-100a4.5 4.5 0 1 1-9 0 4.5 4.5 0 1 1 9 0zm.2 15.7a4.5 4.5 0 1 1-9 0 4.5 4.5 0 1 1 9 0zm92.1 15.2a4.5 4.5 0 1 1-9 0 4.5 4.5 0 1 1 9 0zm-100 0a4.5 4.5 0 1 1-9 0 4.5 4.5 0 1 1 9 0zm16.1 37a4.5 4.5 0 1 1-9 0 4.5 4.5 0 1 1 9 0zM22.2 85a4.5 4.5 0 1 1-9 0 4.5 4.5 0 1 1 9 0zm-4.3-28.4a4.5 4.5 0 1 1-9 0 4.5 4.5 0 1 1 9 0zm-2.1 15.7a4.5 4.5 0 1 1-9 0 4.5 4.5 0 1 1 9 0zm37.5-1a4.5 4.5 0 1 1-9 0 4.5 4.5 0 1 1 9 0zm21.6 12.2a4.5 4.5 0 1 1-9 0 4.5 4.5 0 1 1 9 0zm-8-87a4.5 4.5 0 1 1-9 0 4.5 4.5 0 1 1 9 0zm0 100a4.5 4.5 0 1 1-9 0 4.5 4.5 0 1 1 9 0zm9.8-31.6a4.5 4.5 0 1 1-9 0 4.5 4.5 0 1 1 9 0zm-9.7 8a4.5 4.5 0 1 1-9 0 4.5 4.5 0 1 1 9 0zM41.4-3.5a4.5 4.5 0 1 1-9 0 4.5 4.5 0 1 1 9 0zm0 100a4.5 4.5 0 1 1-9 0 4.5 4.5 0 1 1 9 0zM55.5 87a4.5 4.5 0 1 1-9 0 4.5 4.5 0 1 1 9 0zm-17.2-5.2a4.5 4.5 0 1 1-9 0 4.5 4.5 0 1 1 9 0zm5.1-19a4.5 4.5 0 1 1-9 0 4.5 4.5 0 1 1 9 0zm63.1-1.1a4.5 4.5 0 1 1-9 0 4.5 4.5 0 1 1 9 0zm-.1 32.9a4.5 4.5 0 1 1-9 0 4.5 4.5 0 1 1 9 0zm-14.8-1.7a4.5 4.5 0 1 1-9 0 4.5 4.5 0 1 1 9 0zM103 80.5a4.5 4.5 0 1 1-9 0 4.5 4.5 0 1 1 9 0zm-13.7-6.4a4.5 4.5 0 1 1-9 0 4.5 4.5 0 1 1 9 0zm3-14.8a4.5 4.5 0 1 1-9 0 4.5 4.5 0 1 1 9 0zm-4.5-20.8a4.5 4.5 0 1 1-9 0 4.5 4.5 0 1 1 9 0zm15 5.4a4.5 4.5 0 1 1-9 0 4.5 4.5 0 1 1 9 0zm-4.1-17.2a4.5 4.5 0 1 1-9 0 4.5 4.5 0 1 1 9 0zm-19 0a4.5 4.5 0 1 1-9 0 4.5 4.5 0 1 1 9 0zm25.4-16.4a4.5 4.5 0 1 1-9 0 4.5 4.5 0 1 1 9 0zm-24.3 92.9a4.5 4.5 0 1 1-9 0 4.5 4.5 0 1 1 9 0zm0-100a4.5 4.5 0 1 1-9 0 4.5 4.5 0 1 1 9 0zM53 8.7a4.5 4.5 0 1 1-9 0 4.5 4.5 0 1 1 9 0zm27 41.6a4.5 4.5 0 1 1-9 0 4.5 4.5 0 1 1 9 0zm9.2-36a4.5 4.5 0 1 1-9 0 4.5 4.5 0 1 1 9 0zm-53 37.3a4.5 4.5 0 1 1-9 0 4.5 4.5 0 1 1 9 0zM57.4 55a4.5 4.5 0 1 1-9 0 4.5 4.5 0 1 1 9 0zM65 30.2a4.5 4.5 0 1 1-9 0 4.5 4.5 0 1 1 9 0zM52.6 40.3a4.5 4.5 0 1 1-9 0 4.5 4.5 0 1 1 9 0zM67.7 44a4.5 4.5 0 1 1-9 0 4.5 4.5 0 1 1 9 0zm2.6-30.5a4.5 4.5 0 1 1-9 0 4.5 4.5 0 1 1 9 0zM27.9 30.2a4.5 4.5 0 1 1-9 0 4.5 4.5 0 1 1 9 0zm25.8-6.3a4.5 4.5 0 1 1-9 0 4.5 4.5 0 1 1 9 0zM40 23.1a4.5 4.5 0 1 1-9 0 4.5 4.5 0 1 1 9 0zM35.2 7.9a4.5 4.5 0 1 1-9 0 4.5 4.5 0 1 1 9 0z" fill="#fff" opacity=".3"/></svg>