<svg xmlns="http://www.w3.org/2000/svg" width="165" height="165" fill="none" stroke-linecap="round" stroke-linejoin="round" xmlns:v="https://vecta.io/nano">

<path fill="#ccc" d="M11.6 41.5C4.6 53.6.6 67.6.6 82.6c0 36.1 23.3 66.7 55.7 77.4 24.2 6.6 42.6 5.3 57-2 29.7-12.2 50.5-41.3 50.5-75.4C163.8 37.3 127.4.9 82.2.9c-19.8 0-38 7-52.1 18.7-6.8 6.3-11.2 11.7-18.5 21.9z"/>

<path fill="#fcf1f4" d="M138.1 76.2l2.1 10.9s2.4 1.2 2.5 3.1c.2 1.9 1.4 12.1.6 16.1-.7 4-22.9 20.6-22.9 20.6L95.9 140l-15-4.5-5.2-19.4 17.4-18.3 42.3-23.5zM29.6 113.7s-5.5 4.5-3.9 10.9 6.7 8.2 9.3 8.1 6.4-2.3 7.8-3.9 1.3-4.6 1.2-6.3c-.1-1.6-3.1-11.3-14.4-8.8zm3.8 33.9s-4.2 1.3-3.4 7.4c.8 6.2 7.8 4.5 9.7 3.4s3.4-6 2.6-8.4c-.8-2.5-5.8-4.2-9-2.4zM72.2 25.2s-3.9 6.7-.1 11.1c3.8 4.3 13.1 3.3 14.5.9 1.3-2.4 2.1-6.5 2.1-6.5s4.1-.6 4.3-6.2c.3-5.6-4.1-6.6-7.3-6.4-3.3.2-4.6 3.3-4.6 3.3s-4.1-1.9-8.9 3.8zm66.2-10.9c-.4 0-1.1 2.3-1.4 4.1-.5.1-.9.3-1.3.5 0 0-1 .3-1.8 1.4-1.3-.1-2.8-.5-3.5-.7-1.5-.6-3.3-1.4-3.3-1.4s-.8 1.8.8 2.6c1.1.6 3.7 1.3 5.1 1.8 0 .3-.1.7-.1 1.1-1.6.5-4.6 1.1-5.6 1.9-1.3 1.1.4 1.8 1.6 1.5.8-.2 2.9-.7 4.5-.9.5 1.1 1.4 1.7 2.5 2 .5 1.7.9 3.9.9 4.3.1.7-.1 1.8 2-2.5s3.1-1.7 5.2-1.8c1.6-.1-.3-2.4-1.3-3.9.3-.9.4-1.8.4-2.6.8-.8 2-1.6 3.4-2.4 2.5-1.4 1.6-2-1.6-1.3-1.7.4-2.5.8-3.2 1.1-.8-.5-1.8-.9-2.9-1-.2-1.5 0-3.5-.3-3.9 0-.1-.1-.1-.1-.1z"/>

<path fill="#555" d="M70.1 32.1s-5.9-4.5-14-1.1-8.4 6.4-8.4 6.4-7.6-.5-7.3 6.2c0 0-6.9-1-6.3 6.4 0 0-6.8.4-6 6.6 0 0-6.7 1.1-6.1 4.9 0 0-3.8.9-3.5 4.9 0 0-6.8.7-5.4 8.7 0 0-3.4 2.6-1.5 5.8 0 0-3.5 2.6 0 7 0 0-3.6 6.5 4.3 10.8 0 0 .1 7 7.2 9 0 0 .4 4.7 5.4 3 0 0 0 7.2 6.6 6 0 0 1.7 7.9 8.1 6.5l16.2 7.5s6.2 7.9 10.7 3.6c0 0 1.2 5.9 5.7 4.3 0 0 2.6 4.3 6.6 2.2 0 0 4.9 3.2 11.1-.7 0 0 2.4 3.2 9.6-1.5 0 0 4.7 2.5 6.8-2.3 0 0 2.1 1.6 6.3-2.8 0 0 3.4 2.6 5.4-4.2 0 0 3.5 2.6 6.2-2.2 0 0 4.8.7 3.3-4.2 0 0 3.8.6 6.4-1.2s3.3-5.4 3.3-5.4 4.7.2 4.9-4.6c0 0 4.9-2.6 2.4-8.4 0 0 1.7-4-1.8-5.5 0 0-.1-3.8-3.7-3.7 0 0 .9 9.1.3 12.7s-20.8 17.9-26.7 20.9L95 139l-1-.7s-1.3.2-2.3-.8-1.5-4.5-5.5-3.5c0 0 .2-3.9-2.1-4.6 0 0-.7-4.2-2.4-5.3l1.2-7.2s3.7-.8 5-6c0 0 3.2-1.5 4.3-4.3 0 0 5.7 0 6.7-5.9 0 0 9.5 4.2 12.1-6.1 0 0 6.8.6 7.9-4.3 0 0 5.5.2 7.2-5.8 0 0 7.2 1.2 9.3-4 0 0 9.4-8.4-2.5-14.2 0 0-.9-5.1-5.3-5.1 0 0 .1-5-7.9-3.4 0 0 0-3.7-8.5-5.1l-15-9.1s-1.8-6.5-9.8-4.9l-1.3-.7s-.6 1.1-6.4 1.2c-5.7.1-8.5-5-8.7-7.2z"/>

<path fill="#ceb2ff" d="M69.9 63.1S55.2 76.8 45.6 90.6s-6.3 21.6-5.5 25.6c.9 4 4.3 8.7 7.2 10.2s10.8 5.1 11.6 4.7-3.6-4.7-5-12.1c-1.5-7.4-.3-13.1 4.4-21.7s17.6-19.9 17.6-19.9l35.7-24.7 3.4.8s.8-2.6-.9-4.7c-1.6-2.1-9.9-6.1-11.9-6.4s-7.4 1.9-11.1 5.1C87.3 50.7 69.9 63 69.9 63zm60.2-22.6c-.9 0-1.7.3-2.7.8l-16.5 8.6c2.2 4.7 11.8 8.1 11.8 8.1s13.1-5.7 15-7.7c1.9-2.1 1.5-3.9-2.2-7-2.3-1.9-3.9-2.7-5.4-2.7zm-3.1 5.6c1.3 0 2.9 1.3 2.2 2.8-.8 2-3.4 2.6-4.4.7-.9-1.9 1.1-3.2 1.1-3.2a1.7 1.7 0 0 1 1-.3z"/>

<path fill="#333" d="M48.8 68.7s-6.4 3.1-11.7 2.6-4.3-5.3-3.4-6.9 5.8-2.6 5.8-2.6-2.2-5.5 2.3-7.4c4.5-1.8 6.6 6.4 6.8 8.8s.2 5.5.2 5.5zm8.9-13.5s27 6.9 15.4 39.5c0 0 22.7-3.7 18.7-26.1-4.1-22.4-23.7-22.1-34.1-13.3zm49.1 11.5s3.9 5.8-.5 13c0 0 7.7-3.7 12.4-.9 0 0-3.4-7.1.7-11.3-4.7 1.6-7.9 1.2-12.7-.8z"/>

	<g stroke="#666" stroke-width="1.4">
		<path opacity=".5" d="M76.7 34.8s5.7-3.1 7 1.5m-11.2-3.5s4.2 0 4.5 3.5"/>
		<path d="M132.8 146.5s-8.3 7.1-18.9 11.3m-68.8-2.3s5.6 3 9.8 4.1m108.8-83.5s-2.5-27.2-16.6-43.5m-9.5 110.1s26.6-20.4 26.3-63.2m-29.1 65.7l1.4-1.2m-108.9-.9s.9 1 3 2.5m-7.9-7.3s1.5 1.8 3.1 3.2M11.4 41.8s-29.4 45.1 9.1 94.7m45.3-134S30 9.6 12.7 40M76.1 1.1s-3.2.2-5.5.5m55.9 12.3S107.9-.2 78.8.8m-6.7 108.1s.9 2.4 4.2 4.3m-15.7-11.8s1.6 5.5 6.4 6.8c4.8 1.4 8.7-.1 8.7-.1M35.1 85.4s-.9 4.9 5.8 7.1M29 82.1s-1.4 3.1 2 7.6M20.9 76.1s-3.3 2.8.7 7.2m89.7 11.4s8.4.9 7.9-6.3M97.6 99.8s2.7 2.5 8 1.5 5.8-8.1 5.8-8.1M86.5 134s3.4-1.1 4.5 2 3 2.1 3 2.1m-11.8-8.9s3-.6 3.9 2-.6 4.2-.6 4.2m-5.7-12.1s3.6-.3 4.5 5.6M83 115s.4 4.1-1.1 8.9m6.3-12.9s-1.1 4.3-4.7 6m7.6-8.4s-1.6 2.6-4.7 2.2m12.4-9.1s-.6 3.4-4.1 4.3c-3.6.9-4.9.2-4.9.2m36.5-21.6s-.9 5.1-6.8 5.8m15.9-13.8s1.4 5.2-2.9 7.2c-4.4 2-8 .1-8 .1m10.2-17.2s4.3 1.4 4.6 6.5-3.6 7.6-3.6 7.6m-8-19.9s4.7.4 5 4.9m-12.6-8.1s2.9-.4 5.3.2 2.1 4.2 2.1 4.2M114 53.5s3.5.6 4.9 2.6 1.3 2.6 1.3 2.6M86.9 38.6s2.6-1 5.5.4c2.9 1.3 3.5 4.2 3.5 4.2m50 55.2s1.7-2.5-1.6-4.1m3.9 8.7s1.4-2.8-.4-4.3M144 112s3.6 0 4.7-4.4-1.8-4.8-1.8-4.8m-6.1 13.6s4.8-.2 5.1-4.5m-13 10.9s3.9.9 6.3-2.8c2.5-3.7 1.3-5.1 1.3-5.1M128 127.5s4.5.2 3-3m-8.8 5.1s2.3 1.5 4.1-.4c1.9-1.9 1.7-3 1.7-3m-11.8 7.6s2.9 1.7 4.5-2.1m-12 4s2 2.4 5.3-.2 3-3.1 3-3.1m-13.9 6.6s5.1 2 7-2.5m-16.4 4s3.1 3.3 10.4-2.5m-22.7 1.1s.8 4 7 3 6.3-3.1 6.3-3.1m-18.9-.5s2.6 4 6.6 2.5m-11.2-4.9s.1 2.1 2.5 2.6 3.6-1.7 3.6-1.7M60 131s2.2 3.5 5.5 4.4c3.3.8 4.2-.9 4.2-.9m-34.5-17.9s1.6 7.3 7 6.6M29 112.3s0 2.7 2.7 4c2.7 1.2 5.1-.5 5.1-.5M23 107.7s0 2.1 2.1 2.9 3.1-.1 3.1-.1m-12.1-13s-.9 4.3 2.8 7.8c3.6 3.5 6.3 1.6 6.3 1.6M11.5 88.1s-3.2 6 4.1 10.6m-2.3-18.6s-2.6.2-3.2 3.5c-.5 3.4 2.7 4.9 2.7 4.9m.1-13.1s-2.9 2.3-1.7 4.7m7.2-13.8s-5.8.8-5.5 7.3m10-12.3s-2.8-.2-3.9 2.5-.1 3.7-.1 3.7m10.7-11.2s-3.5.2-6.1 2.1m12-8.4s-3.7-.5-6 1.8-1.5 4.4-1.5 4.4m10.7-12.4s-3.3-.2-4.1 2.3-.5 3.5-.5 3.5m13.7-12.3s-5 .2-6.5 2.4-.8 3.8-.8 3.8m27.7-12.4S63 28 55.2 31c-7.7 3-7.5 7.8-7.5 7.8m94.8 51.9s1.8 12.2.2 16.8-32.1 25.4-46.4 30.9M138.4 78s2.9 8.9 1.1 13.4-38.7 28.8-38.7 28.8 52.1-24.5 39.6-32.8m2.1-60.4l1.6 1.1M130.6 26l-3 1m10.1-10.7l.1-3.1m5.1 8l5.8-3.2m-15.8 3.3l-5.6-2.7m9.9 10.3l-.5 5m4.2-10.2s-2.4.7-1.9 2.2m-3-4.4s1.5 1.1 3.7-.7m-5 3.2s1.1.9.6 2M33.9 159.1s5 1.6 7.5-3.1.5-7.4-1.9-8.9-3.6-.7-3.6-.7m-1.6.3s-4.6 1.3-4.5 6.5 2.6 5.6 2.6 5.6M83.3 29.6s-1.3-.8-1.7-2.4m5.6-9.1s5.6-.5 5.7 6.2-5.6 7.1-7.6 6.2m-5-5.1s-.8-4.7 4.1-6.9m-10.1 4.7s3.4-2.8 6.7-1.7m3.7 16.8s2.8-1 3.8-6.1m-15.8-7.3s-4.4 5.7-1.1 10.9c3.3 5.3 11.2 3.4 11.2 3.4m-40.7 90.2s2.1-2 1.7-4.2m-14.4 5.4s3.7 4.4 10.5.4m-11.1-16.7s-6.1 6.4-1.3 14.3M69.9 63S53.5 77.4 42.8 94.6s1.6 29.5 3.2 30.9c1.7 1.4 10.4 5.4 12.4 5.9 2 .6-1.5-3.2-3.7-9.1-2.1-5.9-2.7-17.2 5.2-27.6 7.9-10.3 15.7-17.4 15.7-17.4M115 50.9s1.2-2.1-6-5.6-7.4-6.6-24.9 7.7m31.3-.1s.4-2.6-.9-2c-1.3.7-5.5 2-22.3 14.8m33.9-19.5s-2.1 1.2-1.1 3.2c.9 1.9 3.5 1.4 4.4-.7.8-2-2-3.5-3.2-2.5zM113.9 48s7.1-3.4 11.3-5.8c4.2-2.5 7-3 11.1 1.1 4 4.1 3.6 5.1-2.1 8.8-5.6 3.6-9.7 5.2-9.7 5.2m-85.1 4.5s-6.8-.7-6.6 6.1c.1 6.7 15.5 1.7 16 .6m0-.2s.9-7.1-1.4-10.9-5.3-4-7.3-2.1c-2.1 1.9-.4 8.1 1.3 9m67.6 3s3.5 3.6 11-.1m-1.4 10.1s-3.5-4.9 1.7-10.2m-13.5-.7s5.3 5.5-.8 13.7c0 0 8.2-5.1 13.2-.4M57.1 55.4S70.2 57.2 74.4 71c4.1 13.8-.7 22.3-1.4 23.2s1.5 1.8 9.4-3 12-14.1 8.2-27.3-15.8-15-21.5-14.1-11 4.5-11 4.5"/>
		<path d="M58.4 160.7s29.2 7.8 53.1-2.1"/>
	</g>
</svg>