<?xml version="1.0" encoding="UTF-8" standalone="no"?>
<svg
   width="80"
   height="54"
   version="1.1"
   id="svg8"
   sodipodi:docname="livre-coeur.svg"
   inkscape:version="1.2.2 (b0a8486541, 2022-12-01)"
   xmlns:inkscape="http://www.inkscape.org/namespaces/inkscape"
   xmlns:sodipodi="http://sodipodi.sourceforge.net/DTD/sodipodi-0.dtd"
   xmlns="http://www.w3.org/2000/svg"
   xmlns:svg="http://www.w3.org/2000/svg">
  <defs
     id="defs12" />
  <sodipodi:namedview
     id="namedview10"
     pagecolor="#ffffff"
     bordercolor="#999999"
     borderopacity="1"
     inkscape:showpageshadow="2"
     inkscape:pageopacity="0"
     inkscape:pagecheckerboard="0"
     inkscape:deskcolor="#d1d1d1"
     showgrid="false"
     inkscape:zoom="10.449467"
     inkscape:cx="38.327314"
     inkscape:cy="28.374653"
     inkscape:window-width="1920"
     inkscape:window-height="1030"
     inkscape:window-x="0"
     inkscape:window-y="26"
     inkscape:window-maximized="1"
     inkscape:current-layer="svg8" />
  <path
     fill="#cccccc"
     d="M 55.6,6.1 C 54.3,6 52.8,6.3 51.2,7.3 40.6,13.4 38,21.2 38,21.2 L 26.9,24 c -6,1.8 -15.3,4 -11.5,13 3.8,9 14.7,13.4 14.7,13.4 1.8,3.6 10.9,2 18.4,0.7 C 58.5,50.4 65.3,42.7 67.1,36.7 c 1.7,-6 -2.4,-17 -2.4,-17 0,0 -2.2,-13.2 -9.2,-13.6 z"/>
  <path
     fill="#444444"
     d="m 16.2,37.5 c 0,0 -3.6,-1.3 -9.5,2 -5.9,3.3 -7.2,7.1 -4.9,9.1 2.4,2.1 5.7,-2.3 5.7,-2.3 0,0 1.5,0.9 2.4,0.4 0.8,-0.5 1.8,-2 1.8,-2 0,0 2.2,1 3.5,0 1.3,-1.1 2.8,-3.9 2.8,-3.9 z M 73.2,1 C 71.6,1.2 69.7,2 67.6,3.5 62.8,7 62.1,9.9 62,10.6 c 0.1,0.1 0.1,0.2 0.2,0.3 0.7,1.1 1.2,2.2 1.6,3.4 l 0.1,-0.1 c 1.5,-1.9 3.9,-1.7 5.5,-1.9 1.6,-0.1 1,-2.7 1,-2.7 C 73.5,11 74,7.4 74,7.4 76.2,8.5 80.1,6.5 78.6,3.7 77.8,1.9 75.8,0.7 73.2,1 Z"/>
  <path
     d="M54.7 5.7c-2 .2-4.2 1.5-7.1 3.5C41 13.5 38 20.9 37.9 21c-1.3.4-12 3.3-18.6 5.7-7 2.5-5.6 11.4 1.7 17.4 7.2 6 19.5 1.7 37.1 5l.2.2v-.2c.1 0 .2 0 .3.1l-.2-.3c.2-1 .9-4 2.9-11.1 2.7-9.4 5.1-19.8.5-27-2.6-4-4.7-5.4-7.2-5.1zM21 44.2h0s4.7 6 11.4 6.1 20.4-2.1 25.9-.9c0 0 5.5-11.7 7.2-16.3 1.7-4.5.5-12-1.2-14.4m-35.2 31s3.1 3.4 9.3 3c6.2-.3 16.7-3.7 20-3.5 0 0 6.6-7.5 8.5-12.9 1.6-4.7-.7-11.4-.7-11.4m-13.6 9.7s1.1-2.3 1.8-2.2 1.5-.9 1.7-1.4c.1-.5 1.2-.7 1.2-.7m-2.1-8.6s.9-1.4 2.4-1.5.8-1.3 1.1-2.1c.3-.7 1.2-.8 1.2-.8M49.1 28.5s.8-2.2 1.5-2.3c.8-.1 1.4-.3 1.5-1.3m-7.6-1.2s-.2-3.4 2.6-3.7c2.8-.4 1.2-1.8 2.3-2.3s3.5-.8 2.9-1.9c-.5-1.1-1.1-3.4.1-3.1s2.7 1 3.5.3M37.1 42s-.9-2.5 3-2.2c3.8.4 2.8-1.3 2.8-1.3m-17.1 1.4s1.8-1.5 3.9-1.6 1.4-1.4 2.5-1.9 4.3-.5 4.6-.9c.3-.3 1.8-2.5 1.8-2.5m-4.1-3.4s.8-.8 1.5-.8m-14.8 5.8s.5-2.8 2.5-2.3 2.1 2.1 4-.4 3.6-.9 3.6-.9m24.8 15s1.1 1 2 3M43.3 29.4s4.4 6.6 6.5 9.1 4.2 5.3 5.1 6.2M38 21.2s2 3.9 4.3 6.9M70.1 9.2s1.3 2.9-1.9 3-3.9.6-4.5 2.2m10.1-7.1s.1 3.4-2.7 2.4C68.3 8.8 69 6 69 6M11.5 44.5s3.3 3.1 6.1-3.5M7.5 45.4s.1 2.8 2.6.9c2.5-1.8 1-5.6 1-5.6m4.7-3.3s-4.9-2.6-12.2 3.9c-7.2 6.5-.1 9.6 2.6 6s1.2-5.8 1.2-5.8m54.5-31s.5-4.8 7.1-8.6c6.6-3.7 10.6.6 9.4 4S73.5 8.5 72 4.6"
     stroke="#ff0"
     fill="none"
     stroke-linecap="round"
     stroke-linejoin="round"
     id="path6" />
</svg>
