<?xml version="1.0" encoding="UTF-8" standalone="no"?>
<!-- Created with Inkscape (http://www.inkscape.org/) -->

<svg
   width="135.71751"
   height="169.71252"
   viewBox="0 0 135.71751 169.71252"
   version="1.1"
   id="svg5"
   xml:space="preserve"
   inkscape:version="1.2.2 (b0a8486541, 2022-12-01)"
   sodipodi:docname="logo.svg"
   xmlns:inkscape="http://www.inkscape.org/namespaces/inkscape"
   xmlns:sodipodi="http://sodipodi.sourceforge.net/DTD/sodipodi-0.dtd"
   xmlns="http://www.w3.org/2000/svg"
   xmlns:svg="http://www.w3.org/2000/svg"><sodipodi:namedview
     id="namedview7"
     pagecolor="#ffffff"
     bordercolor="#999999"
     borderopacity="1"
     inkscape:showpageshadow="2"
     inkscape:pageopacity="0"
     inkscape:pagecheckerboard="0"
     inkscape:deskcolor="#d1d1d1"
     inkscape:document-units="px"
     showgrid="false"
     inkscape:zoom="2.8284271"
     inkscape:cx="15.556349"
     inkscape:cy="98.46462"
     inkscape:window-width="950"
     inkscape:window-height="1020"
     inkscape:window-x="0"
     inkscape:window-y="26"
     inkscape:window-maximized="0"
     inkscape:current-layer="layer1" /><defs
     id="defs2" /><g
     inkscape:label="Calque 1"
     inkscape:groupmode="layer"
     id="layer1"
     transform="translate(494.45826,-192.11359)"><path
       style="fill:#00005e;stroke:#00005e;stroke-width:1.1;stroke-dasharray:none;fill-opacity:1;stroke-opacity:1"
       d="m -467.98405,360.91461 c 6.92305,-5.1356 13.33875,-12.18707 14.08377,-21.18263 0.18073,-2.92238 -1.6639,-6.58338 -4.03669,-4.52998 1.89482,-3.34237 -0.14023,-7.00282 -2.67094,-2.56248 2.46382,-2.44587 1.01729,-8.92898 -2.14253,-4.14029 4.26025,-2.3272 -0.72976,-11.30773 -2.03577,-4.12994 1.53465,-4.04662 0.27769,-9.58743 -1.90569,-8.029 1.78799,-5.41718 -2.39726,-11.78753 0.95138,-16.74896 6.96962,-1.54183 14.08989,1.7805 20.78531,3.54463 9.6156,3.38274 2.09921,-9.59509 -3.80459,-8.27774 -7.96781,0.16187 -11.60876,-7.45055 -18.12178,-9.48588 -2.42965,1.12221 -15.44481,0.2002 -6.14043,1.66034 3.1577,0.44625 15.69374,2.56942 6.21874,2.43518 -4.02228,-0.7244 -11.65921,-3.85444 -11.88092,2.85539 1.95429,-7.84711 -9.77512,0.5311 -12.98387,0.80173 -4.61088,2.87512 2.57533,-4.33127 -2.32136,-1.75598 2.4208,-2.24332 10.7501,-5.86228 15.15034,-7.31015 8.27111,1.42925 17.84446,-0.50316 26.22006,2.83683 3.99343,2.43937 9.80931,3.07552 6.65956,-3.33793 -3.6699,-7.17644 -15.20021,-4.37364 -19.81667,-11.60641 -6.35196,-5.31347 -6.04939,-14.45027 -10.40256,-20.81563 -4.33378,-4.23662 -13.17129,-3.97134 -16.08505,-8.16495 3.23752,1.78573 -3.64576,-6.97462 1.13539,-2.78875 4.70585,6.4698 16.61331,-0.48998 18.81621,9.26085 6.3092,5.34279 5.16122,18.60693 14.53262,18.19695 8.54693,1.65668 -4.28259,-7.33567 -0.30041,-11.88887 2.35181,-6.92242 4.11897,-13.62118 11.67207,-16.98825 2.70903,-8.04125 8.59138,-16.54595 6.90095,-25.53027 -1.708,-5.65299 -5.59223,-13.61346 -3.16978,-18.51441 0.54294,8.15487 4.24493,15.55304 5.39294,23.63867 2.04856,8.4504 -8.70106,15.1555 -3.44284,23.3799 4.1686,7.03145 9.47327,-6.33242 15.62312,-4.57811 4.95555,-4.66864 7.1718,-12.15079 14.40584,-14.48834 8.43894,-3.59875 16.34617,-8.84724 21.40158,-16.62016 2.92559,-3.07898 -3.2582,6.24117 -4.66829,7.89713 -7.41698,9.41773 -21.44778,11.51929 -27.11204,22.72526 4.42638,3.46138 -2.36345,12.46221 5.6547,12.72462 7.63607,4.7012 -1.3589,13.90023 1.91318,18.40187 5.52317,-1.5627 11.62025,-3.71576 16.50955,-6.00344 4.80282,-7.28544 5.11584,-17.11585 10.9433,-23.52687 6.03149,-3.98738 14.72202,-0.52198 19.72979,-6.51152 3.6514,-3.33198 3.66785,-2.09733 2.66766,0.83955 3.20267,0.36349 -6.54792,3.9433 -8.89785,5.1235 -8.02728,1.77094 -13.73408,5.5917 -14.9444,14.1706 -3.05445,7.17216 -2.31783,17.234 -11.64186,19.51475 -4.51097,2.56765 -12.18895,5.56122 -9.73692,10.60559 -1.95932,-4.73054 -3.15738,-2.82201 -1.24768,0.91717 7.18428,-2.45952 15.28427,-5.40019 23.38622,-6.61107 3.45476,0.048 12.22676,-2.45141 12.35864,-1.19418 -0.76809,5.69115 14.71479,0.42677 12.53624,7.63584 -4.85152,-1.87581 -11.23176,-2.41485 -15.7662,-2.44281 -3.63155,-1.36218 -13.00451,2.62854 -13.27084,-0.48299 3.76175,-0.6855 15.11718,0.76553 12.99404,-3.81839 -7.1497,1.50522 -14.57961,2.04354 -21.40128,4.64117 -4.31587,0.76739 -10.56523,4.46074 -11.95532,5.92406 2.99173,-3.85634 -8.56751,-10.1389 -0.82875,-8.73596 6.22439,-4.33828 13.60288,-7.12573 19.39969,-12.06156 2.13184,-7.12189 3.44227,-14.95126 7.04988,-21.84523 1.83209,-6.35216 16.03804,-6.26552 16.18921,-8.67168 -5.03952,3.68847 -17.90106,-0.86563 -17.2734,7.82076 -4.18697,6.38409 -8.31035,14.95101 -8.97108,22.98205 -4.92279,-3.21357 -11.88314,0.92699 -16.83835,3.38065 -2.32298,3.49518 -4.53186,4.64766 -4.15943,-0.6856 -7.14086,3.42474 3.75628,-5.84901 2.62707,-9.32335 4.47076,-6.39566 -6.68756,-15.60486 -8.99,-5.60838 -6.93691,7.30278 -15.28513,-1.60262 -15.06683,-7.80231 -3.47212,4.39891 -6.66349,13.99482 -14.62748,9.02789 -7.13899,-5.36262 -4.10105,9.28578 -0.42007,11.73773 4.81056,7.73327 16.25301,18.2227 25.37783,12.1748 -0.48925,4.81503 -15.30844,1.71687 -19.15102,-3.339 -3.98792,-6.63875 -10.59051,-7.01116 -17.24157,-7.3057 -1.65564,-7.58941 -6.2783,-14.56445 -11.05926,-20.75459 -0.82684,-4.39584 -13.29643,-3.54103 -11.55948,-2.43088 7.00937,1.72134 13.6029,3.50548 14.78865,11.87101 1.87558,7.97779 5.83192,14.77377 13.5048,18.31081 3.67292,3.04479 13.31479,3.73493 14.44943,4.27153 -3.16257,7.16297 2.28907,14.95228 4.42119,21.78961 1.67717,7.81492 13.30088,12.51313 15.71119,9.51384 -4.58282,1.90462 8.3848,11.20172 0.80583,6.01954 -4.95751,-5.45988 -12.60258,-6.18872 -17.24842,-12.22549 -6.99557,-0.69635 -13.77505,-4.0994 -20.95483,-4.05555 -8.44471,2.53152 -2.28854,13.72818 -0.37474,19.23371 3.53676,5.37183 5.31338,13.64148 9.97466,17.30044 0.7666,-7.38555 -3.9901,-14.18523 -6.13541,-21.12927 -0.85514,-3.18406 -5.19958,-12.35564 0.10839,-6.71111 6.6391,2.61753 12.31306,7.49484 19.80808,7.86462 7.64062,1.98467 17.03822,-0.88751 21.33072,7.63255 5.75945,7.15848 7.69181,-6.53784 8.39035,-10.18651 4.51888,-3.64398 16.02253,-7.43397 18.81654,-15.3168 3.96268,-3.86361 -3.40692,10.056 -7.69863,9.9342 -6.73561,3.34127 -13.77305,9.13027 -6.08203,15.91533 1.81549,4.45304 5.86997,11.45681 6.62827,14.18125 -6.48663,-3.36928 -7.19348,-13.21437 -13.55359,-15.57498 -0.69156,5.49895 -2.79804,6.82518 -7.21189,3.00717 -0.93627,4.31824 0.54505,15.9943 -1.66794,15.8942 -3.72015,-7.0877 2.35027,-20.2003 -6.60573,-22.86862 -7.27915,-0.29892 -14.43645,-1.01488 -21.33457,-3.52452 -3.70783,-0.0803 -13.03629,-10.48772 -9.95883,-1.57921 3.19126,7.25716 6.16909,14.49477 7.61891,22.33165 1.62808,3.42007 4.25323,6.15134 -1.43508,5.27801 -4.49707,4.52958 -7.51639,16.54417 -11.06102,17.81113 3.99143,-8.88755 -3.69726,2.74732 -6.22996,0.78662 z m 15.51888,-17.81599 c 4.81898,-2.94063 -0.95015,-6.24311 -0.41788,-0.36579 -0.26391,0.31011 -0.99276,3.36953 0.41788,0.36579 z m 33.55949,-11.92594 c 2.37066,-2.99042 -2.78563,-11.7194 -0.79661,-3.96418 0.36746,1.36394 0.89114,9.35014 0.79661,3.96418 z m 17.18486,0.0571 c -0.68802,-2.61001 -5.689,-11.48855 -6.23993,-9.46207 2.2017,2.98624 3.96392,6.50789 6.23993,9.46207 z M -465.31936,314.32 c 1.82775,-1.09307 -0.82651,-0.96098 0,0 z m 21.87302,-19.37641 c -0.99003,-6.66019 -12.88123,-8.0774 -16.48233,-6.36008 4.26825,3.75411 11.01604,6.0179 16.48233,6.36008 z m -46.00072,-4.46346 c 2.80185,-0.008 15.13045,-4.44768 7.07312,-3.93662 -2.39695,0.92824 -5.49749,2.48241 -7.07312,3.93662 z m 125.39511,-10.22039 c -2.57778,-0.37326 -15.53859,-3.38268 -8.25663,-1.07099 2.73402,0.45541 5.45517,1.26968 8.25663,1.07099 z m -50.51099,-10.8144 c 0.75314,-1.60391 -2.52055,-4.15911 -0.91399,-1.23298 z m -33.66267,-14.22314 c 7.62403,-0.65696 9.99131,-16.52398 0.36736,-14.07105 -6.45393,1.45625 -9.29834,14.85729 -0.36736,14.07105 z m -1.85013,-3.32663 c -5.26816,-5.92096 9.25973,-5.40107 0,0 z m 1.43692,-1.28102 c 2.48426,-5.4942 -3.88287,-9.6e-4 0,0 z m 21.85168,4.23858 c 9.62123,-2.54371 5.78414,-20.77687 -4.48592,-14.83432 -6.86226,3.969 -4.65799,17.24974 4.48592,14.83432 z m -2.7665,-3.44893 c -5.31216,-3.63058 6.42049,-7.32068 2.36518,-0.97382 -0.50986,0.64755 -1.47123,1.38857 -2.36518,0.97382 z m 1.17375,-1.5936 c 3.76489,-4.98815 -4.90702,0.013 0,0 z m 7.90525,-9.16309 c -0.53936,-4.79305 -6.71078,-2.17677 -1.07421,-0.5181 0.48178,0.38188 1.63895,3.19775 1.07421,0.5181 z m -21.3794,0.77374 c -0.34479,-5.2147 -6.88465,-0.21324 -1.26175,-1.17977 0.13845,-0.19576 1.49418,2.21156 1.26175,1.17977 z m 20.95257,-7.0255 c 3.82969,-6.70568 -2.94716,5.47326 0,0 z m 56.77297,111.50041 c -3.87731,-5.77962 -10.453,-9.11102 -17.05463,-10.07718 -4.78705,2.34952 -3.43531,0.3474 -2.05935,-1.44225 -2.90444,2.28412 -7.14087,1.7879 -2.00959,-0.79038 2.44525,-5.51524 0.78015,-11.88904 -0.19457,-18.82871 -1.3459,-5.87693 -2.61077,-12.80002 -1.23177,-18.80634 0.61202,6.90481 1.69503,14.46496 3.13657,21.58259 1.03865,4.56397 0.11602,12.57448 2.73153,15.04538 -0.0364,-10.10774 -1.17497,-20.20411 -0.96584,-30.30967 -0.93497,-4.70596 5.36841,-18.28534 -3.72506,-13.69334 -7.29749,6.13731 -18.88276,5.41252 -24.30311,13.9905 -4.40979,6.90587 1.72966,-4.84055 2.03309,-6.42093 -2.80456,-4.36284 -2.78795,-7.82491 2.84867,-8.34251 2.78225,-1.57172 11.36388,-8.25873 10.7537,-5.32901 -4.8962,4.10208 -14.1832,4.83792 -10.19005,12.98099 -0.54675,1.16235 -2.46354,-8.98713 -2.96577,-2.6697 1.09913,9.24087 10.15455,-3.11157 15.41777,-2.6747 4.0872,-3.55044 16.41632,-7.23011 12.58006,2.33044 -1.74714,3.29564 1.94635,9.8085 -0.99665,8.47109 0.38874,2.97366 3.75069,10.01256 -0.45158,5.52281 -1.86612,3.03165 5.75027,12.27332 2.01588,11.04506 -1.46842,-3.24886 -2.90461,-5.49312 -2.01497,-0.50294 0.30774,4.53515 5.83631,11.69396 1.03251,10.76199 0.40059,7.88837 10.68609,9.33228 16.30839,12.64861 4.59675,-0.0498 5.93212,3.56299 0.29102,2.30442 -5.12963,-1.13993 2.06724,2.08836 -0.6204,3.54278 z m -8.18908,-8.82728 c -2.53111,-3.00196 -11.68608,-3.03023 -3.44282,-0.84731 1.14767,0.0944 2.23938,1.15446 3.44282,0.84731 z m -13.6486,-24.12535 c -0.44032,-0.63389 0.41507,1.52129 0,0 z m -0.0773,-25.30399 c 0.85099,-1.17107 -3.42182,2.39839 0,0 z m -32.40031,32.02824 c 2.84193,-4.86995 6.27626,-0.66528 0,0 z m 7.92369,-3.01725 c -0.17431,-3.04189 -2.1848,-10.39201 -2.59156,-9.76132 3.39737,-0.69369 3.42467,10.27328 2.59156,9.76132 z m -11.34612,-6.11382 c -2.2975,-2.07254 11.43037,-3.7886 3.6891,-0.28467 -1.16805,0.44438 -2.46639,0.53853 -3.6891,0.28467 z m 34.6192,-5.22463 c -0.64415,-3.63709 0.96566,3.77397 0,0 z m -41.3953,-0.96001 c 4.28864,-1.18142 12.53477,-5.10477 13.77369,-5.40803 -3.78721,3.31073 -8.80799,4.99292 -13.77369,5.40803 z m -3.95948,-8.42549 c -8.02633,-2.25312 10.20095,-0.11856 12.65521,-4.28138 7.41241,-3.57133 -3.61594,5.24644 -7.15831,4.07162 -1.81823,0.2632 -3.66386,0.31891 -5.4969,0.20979 z m 0.5469,-8.84922 c -3.90821,0.99883 -11.76182,-3.23841 -3.26916,-1.21544 2.94345,0.0952 11.01722,0.497 3.26916,1.21544 z m 10.02797,-2.92296 c 1.62153,-4.12931 7.45585,-2.62384 1.48739,-0.23709 -0.4958,0.079 -0.99159,0.15813 -1.48739,0.23709 z m -14.856,-7.28256 c -10.06996,-1.90118 -16.80146,-11.10491 -19.79403,-20.3066 6.15832,6.52399 15.89059,10.46096 24.54411,6.49528 5.76889,-1.283 11.76648,-7.58142 13.14817,-10.2714 6.23391,1.56526 -1.86089,0.99503 -0.18047,5.98125 -0.58337,6.92218 -4.68338,13.78484 -10.89594,17.08631 -2.11524,0.9781 -4.51104,1.35043 -6.82194,1.01516 z m 1.17164,-1.03877 c -5.06824,-3.61561 8.60595,-12.90452 -1.40494,-10.73177 -5.92318,-2.35762 -9.77854,7.5546 -12.50395,-0.79482 -1.79584,-4.8124 -7.18811,-4.93485 -2.51744,0.21398 3.24155,5.63271 10.97299,12.0947 16.42633,11.31251 z m 4.41215,-0.20707 c 6.85971,-1.01139 11.66824,-15.59035 1.30991,-9.26511 -4.14359,1.23501 -9.23563,10.63313 -1.30991,9.26511 z m -19.25705,-8.79804 c -0.008,-7.83635 -8.53802,-0.0381 0,0 z m 20.73737,-1.16858 c 6.03524,-4.92489 -7.64956,-0.72358 -0.44066,0.15863 l 0.40528,-0.14614 0.0353,-0.013 z m 8.08242,-1.82697 c 3.38344,-5.50066 0.47778,-7.51026 -3.65992,-2.93245 -5.53307,3.34403 1.21787,2.95439 3.65992,2.93245 z"
       id="path505"
       sodipodi:nodetypes="sccccccccccccccccccccccccccccccccccccccccccccccccccccccccccccccccccccccccccccccccccccccccccccccccccccsscccccccccccccccccccccccccccccccccccccccccccccccccccccccccccccccccccccccccccccccccccccccccccccsccssccccccscccccssscccsscccccscccsccc" /></g></svg>
